<?xml version="1.0" standalone="no"?>
<!DOCTYPE svg PUBLIC "-//W3C//DTD SVG 20010904//EN"
 "http://www.w3.org/TR/2001/REC-SVG-20010904/DTD/svg10.dtd">
<svg version="1.0" xmlns="http://www.w3.org/2000/svg"
 width="512.000000pt" height="512.000000pt" viewBox="0 0 512.000000 512.000000"
 preserveAspectRatio="xMidYMid meet">

<g transform="translate(0.000000,512.000000) scale(0.100000,-0.100000)"
fill="#000000" stroke="none">
<path d="M160 4925 c-52 -17 -102 -61 -133 -119 -28 -54 -30 -165 -3 -216 26
-49 64 -88 111 -113 38 -21 57 -22 325 -27 310 -5 314 -6 345 -65 19 -35 476
-2089 466 -2093 -43 -16 -146 -89 -192 -135 -222 -221 -206 -637 33 -852 67
-60 189 -120 275 -134 49 -8 443 -11 1414 -9 l1346 3 48 30 c33 21 57 47 79
85 27 48 31 64 30 125 -1 106 -48 181 -139 222 -38 17 -116 18 -1370 23 -1429
5 -1365 3 -1385 56 -17 43 -11 72 19 106 l29 33 1414 5 1413 5 73 27 c100 36
170 81 241 152 71 73 125 158 151 242 33 108 372 2034 366 2077 -14 86 -90
176 -165 197 -23 6 -688 10 -1863 10 l-1827 0 -33 63 c-67 126 -214 243 -368
293 -76 24 -629 32 -700 9z m671 -155 c145 -44 262 -158 306 -297 l17 -53
1863 0 c2000 0 1915 2 1942 -48 6 -12 11 -34 11 -50 0 -52 -338 -1934 -360
-2004 -35 -114 -122 -214 -235 -271 -108 -54 -27 -51 -1541 -57 l-1411 -5 -49
-30 c-72 -45 -114 -119 -114 -202 0 -35 7 -80 15 -101 23 -55 82 -109 142
-132 53 -20 80 -20 1364 -20 977 0 1316 -3 1332 -12 34 -18 46 -40 47 -83 0
-52 -21 -82 -68 -95 -41 -11 -940 -12 -2052 -1 l-665 6 -65 32 c-200 98 -296
351 -216 571 47 129 170 229 323 263 29 7 53 15 53 19 0 4 -11 33 -25 64 -16
37 -108 429 -256 1099 -250 1130 -245 1112 -327 1174 -75 57 -115 63 -404 63
l-259 0 -24 25 c-35 34 -35 106 0 140 l24 25 284 0 c255 0 292 -2 348 -20z"/>
<path d="M1205 4188 c4 -18 97 -435 205 -926 219 -988 210 -956 304 -1019 26
-18 64 -37 84 -43 24 -6 447 -10 1223 -10 1325 0 1237 -5 1324 72 25 22 54 57
64 77 24 46 24 46 196 1016 80 451 148 830 150 843 l5 22 -1781 0 -1781 0 7
-32z m1220 -528 l0 -415 -431 -3 -431 -2 -91 413 c-51 228 -92 417 -92 420 0
4 235 6 523 5 l522 -3 0 -415z m1055 0 l0 -420 -455 0 -455 0 0 420 0 420 455
0 455 0 0 -420z m1100 400 c0 -11 -31 -195 -70 -410 -38 -215 -70 -395 -70
-400 0 -7 -142 -9 -407 -8 l-408 3 -3 405 c-1 223 0 411 3 417 3 10 108 13
480 13 467 0 475 0 475 -20z m-2152 -1342 l-3 -383 -250 -3 c-314 -4 -346 0
-392 42 -35 32 -36 34 -109 367 -41 183 -74 340 -74 346 0 10 88 13 415 13
l415 0 -2 -382z m1052 -3 l0 -385 -455 0 -455 0 0 385 0 385 455 0 455 0 0
-385z m930 379 c0 -3 -27 -156 -60 -341 -44 -246 -66 -343 -80 -363 -37 -51
-60 -55 -365 -55 l-280 0 -3 383 -2 382 395 0 c217 0 395 -3 395 -6z"/>
<path d="M1629 1102 c-349 -91 -466 -527 -210 -782 179 -179 463 -183 647 -8
99 93 144 198 144 334 0 186 -100 348 -263 424 -110 52 -205 61 -318 32z m270
-167 c60 -33 110 -87 143 -154 18 -37 23 -63 23 -131 0 -68 -5 -94 -23 -131
-33 -67 -83 -121 -143 -154 -49 -27 -62 -30 -149 -30 -110 0 -166 21 -233 88
-138 138 -118 380 40 488 70 48 109 59 203 56 72 -3 93 -8 139 -32z"/>
<path d="M1665 836 c-112 -50 -154 -187 -90 -291 77 -124 256 -128 340 -7 26
38 30 52 30 112 0 60 -4 74 -30 111 -55 78 -167 112 -250 75z m128 -158 l21
-28 -21 -27 c-25 -34 -47 -39 -78 -19 -33 22 -34 69 -2 91 30 21 56 16 80 -17z"/>
<path d="M3595 1109 c-133 -27 -264 -129 -324 -250 -183 -376 177 -786 571
-650 160 55 279 198 308 371 36 214 -99 439 -307 511 -70 24 -180 32 -248 18z
m244 -174 c184 -101 228 -342 89 -499 -58 -67 -125 -98 -220 -104 -109 -6
-165 15 -244 93 -71 70 -94 125 -94 225 0 100 23 155 94 225 79 78 124 96 236
92 72 -3 93 -7 139 -32z"/>
<path d="M3605 834 c-46 -23 -93 -74 -106 -112 -6 -19 -9 -61 -7 -93 5 -65 21
-94 82 -143 49 -40 142 -49 202 -18 152 78 153 286 2 363 -46 23 -131 25 -173
3z m125 -144 c11 -11 20 -29 20 -40 0 -26 -34 -60 -60 -60 -11 0 -29 9 -40 20
-11 11 -20 29 -20 40 0 11 9 29 20 40 11 11 29 20 40 20 11 0 29 -9 40 -20z"/>
</g>
</svg>
