<svg width="68" height="68" viewBox="0 0 68 68" fill="none" xmlns="http://www.w3.org/2000/svg">
<path d="M62 28.19H39.81V6C39.81 4.45909 39.1979 2.9813 38.1083 1.89171C37.0187 0.802126 35.5409 0.190002 34 0.190002C32.4591 0.190002 30.9813 0.802126 29.8917 1.89171C28.8021 2.9813 28.19 4.45909 28.19 6V28.19H6C4.45909 28.19 2.9813 28.8021 1.89171 29.8917C0.802126 30.9813 0.190002 32.4591 0.190002 34C0.190002 35.5409 0.802126 37.0187 1.89171 38.1083C2.9813 39.1979 4.45909 39.81 6 39.81H28.19V62C28.19 62.763 28.3403 63.5185 28.6323 64.2234C28.9242 64.9283 29.3522 65.5688 29.8917 66.1083C30.4312 66.6478 31.0717 67.0758 31.7766 67.3677C32.4815 67.6597 33.237 67.81 34 67.81C34.763 67.81 35.5185 67.6597 36.2234 67.3677C36.9283 67.0758 37.5688 66.6478 38.1083 66.1083C38.6478 65.5688 39.0758 64.9283 39.3677 64.2234C39.6597 63.5185 39.81 62.763 39.81 62V39.81H62C63.5409 39.81 65.0187 39.1979 66.1083 38.1083C67.1979 37.0187 67.81 35.5409 67.81 34C67.81 32.4591 67.1979 30.9813 66.1083 29.8917C65.0187 28.8021 63.5409 28.19 62 28.19Z" fill="black"/>
</svg>
